<?xml version="1.0" encoding="utf-8"?>
<!-- Generator: Adobe Illustrator 22.1.0, SVG Export Plug-In . SVG Version: 6.00 Build 0)  -->
<svg version="1.1" id="Layer_1" xmlns="http://www.w3.org/2000/svg" xmlns:xlink="http://www.w3.org/1999/xlink" x="0px" y="0px"
	 viewBox="0 0 241.9 300" style="enable-background:new 0 0 241.9 300;" xml:space="preserve">
<style type="text/css">
	.st0{fill:#DC1E24;}
</style>
<g>
	<path class="st0" d="M59.9,193c0-5-3.4-8-9.5-8c-2.5,0-4.1,0.2-5,0.5v16c1,0.2,2.3,0.3,4.1,0.3C55.9,201.8,59.9,198.6,59.9,193z"/>
	<path class="st0" d="M97.3,185.2c-2.7,0-4.5,0.2-5.5,0.5v35.4c1,0.2,2.7,0.2,4.2,0.2c11,0.1,18.1-6,18.1-18.9
		C114.3,191.2,107.7,185.2,97.3,185.2z"/>
	<path class="st0" d="M166.8,0H47.5C30,0,15.8,14.3,15.8,31.9V150h-3.1c-7,0-12.7,5.8-12.7,12.9v78c0,7.1,5.7,12.9,12.7,12.9h3.1
		v14.3c0,17.6,14.2,31.9,31.6,31.9h162.9c17.4,0,31.6-14.3,31.6-31.9V75.6L166.8,0z M33.4,176.9c3.7-0.6,9-1.1,16.4-1.1
		c7.5,0,12.8,1.4,16.4,4.3c3.4,2.7,5.7,7.2,5.7,12.5c0,5.3-1.7,9.8-4.9,12.8c-4.1,3.9-10.3,5.7-17.4,5.7c-1.6,0-3-0.1-4.1-0.2v19.3
		h-12V176.9z M210.3,280.4H47.5c-6.8,0-12.2-5.6-12.2-12.4v-14.3H187c7,0,12.7-5.8,12.7-12.9v-78c0-7.1-5.7-12.9-12.7-12.9H35.2
		V31.9c0-6.8,5.5-12.4,12.2-12.4l112.1-0.1v41.8c0,12.2,9.8,22.1,21.9,22.1l40.6-0.1l0.5,184.8C222.6,274.9,217.1,280.4,210.3,280.4
		z M79.7,230.1v-53.2c4.5-0.7,10.3-1.1,16.4-1.1c10.2,0,16.8,1.8,22,5.8c5.6,4.2,9.1,10.8,9.1,20.4c0,10.4-3.7,17.5-8.9,21.9
		c-5.6,4.7-14.2,7-24.7,7C87.1,230.9,82.7,230.5,79.7,230.1z M166.5,198.6v10h-19.2v21.8h-12.2v-54.1h32.8v10h-20.6v12.4H166.5z"/>
</g>
</svg>
