<?xml version="1.0" encoding="utf-8"?>
<!-- Generator: Adobe Illustrator 22.1.0, SVG Export Plug-In . SVG Version: 6.00 Build 0)  -->
<svg version="1.1" id="Layer_1" xmlns="http://www.w3.org/2000/svg" xmlns:xlink="http://www.w3.org/1999/xlink" x="0px" y="0px"
	 viewBox="0 0 300 300" style="enable-background:new 0 0 300 300;" xml:space="preserve">
<style type="text/css">
	.st0{fill:#B9B9B9;}
</style>
<g>
	<path class="st0" d="M296.3,278.7l-72.1-72.1c17.9-21.8,28.7-49.7,28.7-80.1C252.9,56.6,196.2,0,126.4,0C56.6,0,0,56.6,0,126.4
		c0,69.8,56.6,126.4,126.4,126.4c30.4,0,58.3-10.7,80.1-28.6l72.1,72.1c4.9,4.9,12.8,4.9,17.7,0
		C301.2,291.5,301.2,283.5,296.3,278.7z M126.4,227.7c-55.9,0-101.3-45.4-101.3-101.3S70.5,25.1,126.4,25.1
		c55.8,0,101.3,45.5,101.3,101.3S182.3,227.7,126.4,227.7z"/>
</g>
</svg>
